<?xml version="1.0" encoding="UTF-8" standalone="no"?>
<!-- Created with Inkscape (http://www.inkscape.org/) -->

<svg
   xmlns:dc="http://purl.org/dc/elements/1.1/"
   xmlns:cc="http://creativecommons.org/ns#"
   xmlns:rdf="http://www.w3.org/1999/02/22-rdf-syntax-ns#"
   xmlns:svg="http://www.w3.org/2000/svg"
   xmlns="http://www.w3.org/2000/svg"
   xmlns:sodipodi="http://sodipodi.sourceforge.net/DTD/sodipodi-0.dtd"
   xmlns:inkscape="http://www.inkscape.org/namespaces/inkscape"
   id="svg2"
   version="1.1"
   inkscape:version="0.48.4 r9939"
   width="453.54001"
   height="340.15747"
   xml:space="preserve"
   sodipodi:docname="slides.pdf"><metadata
     id="metadata8"><rdf:RDF><cc:Work
         rdf:about=""><dc:format>image/svg+xml</dc:format><dc:type
           rdf:resource="http://purl.org/dc/dcmitype/StillImage" /><dc:title></dc:title></cc:Work></rdf:RDF></metadata><defs
     id="defs6"><clipPath
       clipPathUnits="userSpaceOnUse"
       id="clipPath16"><path
         d="M 0,0 720,0 720,540 0,540 0,0 z"
         clip-rule="evenodd"
         id="path18"
         inkscape:connector-curvature="0" /></clipPath><clipPath
       clipPathUnits="userSpaceOnUse"
       id="clipPath28"><path
         d="M 0,0 720,0 720,60 0,60 0,0 z"
         clip-rule="evenodd"
         id="path30"
         inkscape:connector-curvature="0" /></clipPath><clipPath
       clipPathUnits="userSpaceOnUse"
       id="clipPath40"><path
         d="M 0,0 720,0 720,540 0,540 0,0 z"
         clip-rule="evenodd"
         id="path42"
         inkscape:connector-curvature="0" /></clipPath><clipPath
       clipPathUnits="userSpaceOnUse"
       id="clipPath150"><path
         d="m 360,-35 0,0 0,609.1 0,0 0,-609.1 z"
         id="path152"
         inkscape:connector-curvature="0" /></clipPath></defs><sodipodi:namedview
     pagecolor="#ffffff"
     bordercolor="#666666"
     borderopacity="1"
     objecttolerance="10"
     gridtolerance="10"
     guidetolerance="10"
     inkscape:pageopacity="0"
     inkscape:pageshadow="2"
     inkscape:window-width="1920"
     inkscape:window-height="1028"
     id="namedview4"
     showgrid="false"
     inkscape:zoom="1.9778039"
     inkscape:cx="318.80566"
     inkscape:cy="117.58916"
     inkscape:window-x="1920"
     inkscape:window-y="0"
     inkscape:window-maximized="1"
     inkscape:current-layer="g10"
     width="1052.36px"
     units="px" /><g
     id="g10"
     inkscape:groupmode="layer"
     inkscape:label="slides234"
     transform="matrix(1.25,0,0,-1.25,0,340.15675)"><g
       id="g24"
       transform="scale(0.50393333,0.50393333)"><g
         id="g26"
         clip-path="url(#clipPath28)"><path
           d="M 0,42 720,42 720,0 0,0 0,42 z m 0,0 0,0 z m 720,-42 0,0 z"
           style="fill:#822433;fill-opacity:1;fill-rule:evenodd;stroke:none"
           id="path32"
           inkscape:connector-curvature="0" /><path
           d="m 96,60 624,0 0,-60 -624,0 0,60 z m 0,0 0,0 z m 624,-60 0,0 z"
           style="fill:#822433;fill-opacity:1;fill-rule:evenodd;stroke:none"
           id="path34"
           inkscape:connector-curvature="0" /></g></g><g
       id="g146"><g
         id="g148" /><g
         id="g154"><g
           clip-path="url(#clipPath150)"
           id="g156"
           style="opacity:0.5" /></g></g></g></svg>